<svg xmlns="http://www.w3.org/2000/svg" width="20" height="20" viewBox="0 0 109.77 82.599">
  <g id="Group_36" data-name="Group 36" transform="translate(3313.183 487.969)">
    <path id="caret-up-solid" d="M102.373,62.252H7.4a7.382,7.382,0,0,1-5.22-12.6L49.665,2.162a7.382,7.382,0,0,1,10.439,0L107.593,49.65a7.382,7.382,0,0,1-5.22,12.6Z" transform="translate(-3203.413 -425.717) rotate(180)"/>
    <path id="caret-up-solid-2" data-name="caret-up-solid" d="M102.373,62.252H7.4a7.382,7.382,0,0,1-5.22-12.6L49.665,2.162a7.382,7.382,0,0,1,10.439,0L107.593,49.65a7.382,7.382,0,0,1-5.22,12.6Z" transform="translate(-3203.413 -405.37) rotate(180)"/>
  </g>
</svg>
