<svg xmlns="http://www.w3.org/2000/svg" width="44" height="40" viewBox="0 0 44 40">
  <g id="widget" transform="translate(-1 -3)">
    <path id="Path_16" data-name="Path 16" d="M43.087,3H2.913A1.908,1.908,0,0,0,1,4.9V41.1A1.908,1.908,0,0,0,2.913,43H43.087A1.908,1.908,0,0,0,45,41.1V4.9A1.908,1.908,0,0,0,43.087,3ZM19.174,5.857a1.9,1.9,0,1,1-1.913,1.9A1.908,1.908,0,0,1,19.174,5.857Zm-6.7,0a1.9,1.9,0,1,1-1.913,1.9A1.908,1.908,0,0,1,12.478,5.857Zm-6.7,0a1.9,1.9,0,1,1-1.913,1.9A1.908,1.908,0,0,1,5.783,5.857ZM42.13,41.1H3.87a.955.955,0,0,1-.957-.952V13.476a.955.955,0,0,1,.957-.952H42.13a.955.955,0,0,1,.957.952V40.143A.955.955,0,0,1,42.13,41.1Z" fill="#212121"/>
  </g>
</svg>
