<svg xmlns="http://www.w3.org/2000/svg" width="40" height="40" viewBox="0 0 40 40">
  <g id="ic_camera_48px" transform="translate(-4 -4)">
    <path id="Path_19" data-name="Path 19" d="M18.8,21,28.33,4.49A19.826,19.826,0,0,0,11.36,8.51L18.69,21.2Zm24.28-3A20.036,20.036,0,0,0,31.09,5.32L23.77,18Zm.52,2H28.62l.58,1,9.53,16.5A19.926,19.926,0,0,0,44,24a20.248,20.248,0,0,0-.4-4ZM17.07,24,9.27,10.5A19.926,19.926,0,0,0,4,24a20.248,20.248,0,0,0,.4,4H19.38l-2.31-4ZM4.92,30A20.036,20.036,0,0,0,16.91,42.68L24.23,30Zm22.54,0-7.8,13.51a19.847,19.847,0,0,0,16.98-4.02L29.31,26.8,27.46,30Z" fill="#212121"/>
  </g>
</svg>
